<svg width="40" height="40" viewBox="0 0 40 40" fill="none" xmlns="http://www.w3.org/2000/svg">
<mask id="path-1-inside-1_1610_2027" fill="white">
<path fill-rule="evenodd" clip-rule="evenodd" d="M16 5C14.3431 5 13 6.34315 13 8L12 8C9.79086 8 8 9.79086 8 12V30C8 32.2091 9.79086 34 12 34H28C30.2091 34 32 32.2091 32 30V12C32 9.79086 30.2091 8 28 8H27C27 6.34315 25.6569 5 24 5H16ZM13 10C13 11.1046 13.8954 12 15 12H25C26.1046 12 27 11.1046 27 10H28C29.1046 10 30 10.8954 30 12V30C30 31.1046 29.1046 32 28 32H12C10.8954 32 10 31.1046 10 30V12C10 10.8954 10.8954 10 12 10H13Z"/>
</mask>
<path fill-rule="evenodd" clip-rule="evenodd" d="M16 5C14.3431 5 13 6.34315 13 8L12 8C9.79086 8 8 9.79086 8 12V30C8 32.2091 9.79086 34 12 34H28C30.2091 34 32 32.2091 32 30V12C32 9.79086 30.2091 8 28 8H27C27 6.34315 25.6569 5 24 5H16ZM13 10C13 11.1046 13.8954 12 15 12H25C26.1046 12 27 11.1046 27 10H28C29.1046 10 30 10.8954 30 12V30C30 31.1046 29.1046 32 28 32H12C10.8954 32 10 31.1046 10 30V12C10 10.8954 10.8954 10 12 10H13Z" fill="#1B9AF4"/>
<path d="M13 8L13 10H15V8H13ZM12 8V10H12L12 8ZM27 8H25V10H27V8ZM13 10H15V8H13V10ZM27 10V8H25V10H27ZM15 8C15 7.44772 15.4477 7 16 7V3C13.2386 3 11 5.23858 11 8H15ZM13 6L12 6L12 10L13 10L13 6ZM12 6C8.68629 6 6 8.68629 6 12H10C10 10.8954 10.8954 10 12 10V6ZM6 12V30H10V12H6ZM6 30C6 33.3137 8.68629 36 12 36V32C10.8954 32 10 31.1046 10 30H6ZM12 36H28V32H12V36ZM28 36C31.3137 36 34 33.3137 34 30H30C30 31.1046 29.1046 32 28 32V36ZM34 30V12H30V30H34ZM34 12C34 8.68629 31.3137 6 28 6V10C29.1046 10 30 10.8954 30 12H34ZM28 6H27V10H28V6ZM24 7C24.5523 7 25 7.44772 25 8H29C29 5.23858 26.7614 3 24 3V7ZM16 7H24V3H16V7ZM15 10H11C11 12.2091 12.7909 14 15 14V10ZM25 10H15V14H25V10ZM25 10V14C27.2091 14 29 12.2091 29 10H25ZM28 8H27V12H28V8ZM32 12C32 9.79086 30.2091 8 28 8V12H32ZM32 30V12H28V30H32ZM28 34C30.2091 34 32 32.2091 32 30H28V34ZM12 34H28V30H12V34ZM8 30C8 32.2091 9.79086 34 12 34V30H12H8ZM8 12V30H12V12H8ZM12 8C9.79086 8 8 9.79086 8 12H12V8ZM13 8H12V12H13V8Z" fill="#202326" mask="url(#path-1-inside-1_1610_2027)"/>
<path fill-rule="evenodd" clip-rule="evenodd" d="M16 17C16 16.4477 16.4477 16 17 16H23C23.5523 16 24 16.4477 24 17C24 17.5523 23.5523 18 23 18H17C16.4477 18 16 17.5523 16 17ZM17 20.5C16.4477 20.5 16 20.9477 16 21.5C16 22.0523 16.4477 22.5 17 22.5H23C23.5523 22.5 24 22.0523 24 21.5C24 20.9477 23.5523 20.5 23 20.5H17ZM17 25C16.4477 25 16 25.4477 16 26C16 26.5523 16.4477 27 17 27H23C23.5523 27 24 26.5523 24 26C24 25.4477 23.5523 25 23 25H17Z" fill="#1B9AF4"/>
</svg>
