<svg width="40" height="40" viewBox="0 0 40 40" fill="none" xmlns="http://www.w3.org/2000/svg">
<path fill-rule="evenodd" clip-rule="evenodd" d="M12 10H28C29.1046 10 30 10.8954 30 12V21C30 21.5523 30.4477 22 31 22C31.5523 22 32 21.5523 32 21V12C32 9.79086 30.2091 8 28 8H12C9.79086 8 8 9.79086 8 12V30C8 32.2091 9.79086 34 12 34H20C20.5523 34 21 33.5523 21 33C21 32.4477 20.5523 32 20 32H12C10.8954 32 10 31.1046 10 30V12C10 10.8954 10.8954 10 12 10Z" fill="#202326"/>
<path d="M14 8C14 6.89543 14.8954 6 16 6H24C25.1046 6 26 6.89543 26 8V10C26 10.5523 25.5523 11 25 11H15C14.4477 11 14 10.5523 14 10V8Z" fill="#1B9AF4" stroke="#202326" stroke-width="2"/>
<path fill-rule="evenodd" clip-rule="evenodd" d="M16 17C16 16.4477 16.4477 16 17 16H23C23.5523 16 24 16.4477 24 17C24 17.5523 23.5523 18 23 18H17C16.4477 18 16 17.5523 16 17ZM17 20.5C16.4477 20.5 16 20.9477 16 21.5C16 22.0523 16.4477 22.5 17 22.5H23C23.5523 22.5 24 22.0523 24 21.5C24 20.9477 23.5523 20.5 23 20.5H17ZM17 25C16.4477 25 16 25.4477 16 26C16 26.5523 16.4477 27 17 27H19C19.5523 27 20 26.5523 20 26C20 25.4477 19.5523 25 19 25H17Z" fill="#1B9AF4"/>
<circle cx="29" cy="30" r="6" fill="white" stroke="#202326" stroke-width="2"/>
<path fill-rule="evenodd" clip-rule="evenodd" d="M28.4071 27.8787C28.0165 27.4882 27.3834 27.4882 26.9928 27.8787C26.6023 28.2692 26.6023 28.9024 26.9928 29.2929L27.7 30.0001L26.993 30.7071C26.6025 31.0976 26.6025 31.7308 26.993 32.1213C27.3835 32.5118 28.0167 32.5118 28.4072 32.1213L29.1142 31.4143L29.8213 32.1213C30.2118 32.5118 30.845 32.5118 31.2355 32.1213C31.626 31.7308 31.626 31.0976 31.2355 30.7071L30.5285 30.0001L31.2356 29.2929C31.6262 28.9024 31.6262 28.2692 31.2356 27.8787C30.8451 27.4882 30.2119 27.4882 29.8214 27.8787L29.1142 28.5859L28.4071 27.8787Z" fill="#1B9AF4"/>
</svg>
