<svg width="40" height="40" viewBox="0 0 40 40" fill="none" xmlns="http://www.w3.org/2000/svg">
<circle cx="20" cy="12.5" r="7.5" stroke="#202326" stroke-width="2"/>
<mask id="path-2-inside-1_1615_2123" fill="white">
<path fill-rule="evenodd" clip-rule="evenodd" d="M32.7238 29.0524C32.9101 29.35 33 29.6965 33 30.0475V31C33 32.1046 32.1046 33 31 33H9C7.89543 33 7 32.1046 7 31V30.0475C7 29.6965 7.08991 29.35 7.27615 29.0524C9.92735 24.8169 14.6347 22 20 22C25.3653 22 30.0727 24.8169 32.7238 29.0524Z"/>
</mask>
<path d="M32.7238 29.0524L31.0286 30.1136L32.7238 29.0524ZM31 30.0475V31H35V30.0475H31ZM31 31H9V35H31V31ZM9 31V30.0475H5V31H9ZM8.97143 30.1136C11.2724 26.4376 15.3523 24 20 24V20C13.9171 20 8.58231 23.1962 5.58087 27.9913L8.97143 30.1136ZM20 24C24.6477 24 28.7276 26.4376 31.0286 30.1136L34.4191 27.9913C31.4177 23.1962 26.0829 20 20 20V24ZM9 30.0475C9 30.0341 9.00337 30.0626 8.97143 30.1136L5.58087 27.9913C5.17644 28.6374 5 29.3588 5 30.0475H9ZM9 31H9H5C5 33.2091 6.79086 35 9 35V31ZM31 31V31V35C33.2091 35 35 33.2091 35 31H31ZM35 30.0475C35 29.3588 34.8236 28.6374 34.4191 27.9913L31.0286 30.1136C30.9966 30.0626 31 30.0341 31 30.0475H35Z" fill="#202326" mask="url(#path-2-inside-1_1615_2123)"/>
<path d="M17.3008 13.25C17.7873 14.2499 18.8132 14.939 19.9999 14.939C21.1829 14.939 22.206 14.2543 22.6944 13.2596" stroke="#0070C0" stroke-width="2" stroke-linecap="round"/>
</svg>
