<svg width="40" height="40" viewBox="0 0 40 40" fill="none" xmlns="http://www.w3.org/2000/svg">
<path d="M10 11.5366C10 11.0835 10.3046 10.6871 10.7423 10.5703L21.7423 7.63699C22.3772 7.4677 23 7.94619 23 8.60322V31.3968C23 32.0538 22.3772 32.5323 21.7423 32.363L10.7423 29.4297C10.3046 29.3129 10 28.9165 10 28.4634V11.5366Z" stroke="#202326" stroke-width="2"/>
<path fill-rule="evenodd" clip-rule="evenodd" d="M33.3642 20.6497L33.3545 20.6593L29.1214 24.8924C28.7309 25.2829 28.0977 25.2829 27.7072 24.8924C27.3167 24.5019 27.3167 23.8687 27.7072 23.4782L30.1854 21H19C18.4477 21 18 20.5523 18 20C18 19.4477 18.4477 19 19 19H30.3002L27.7073 16.4071C27.3168 16.0166 27.3168 15.3834 27.7073 14.9929C28.0979 14.6024 28.731 14.6024 29.1215 14.9929L33.3642 19.2355C33.7547 19.6261 33.7547 20.2592 33.3642 20.6497Z" fill="#0070C0"/>
</svg>
