<svg width="40" height="40" viewBox="0 0 40 40" fill="none" xmlns="http://www.w3.org/2000/svg">
<path fill-rule="evenodd" clip-rule="evenodd" d="M20 10.0858H11C9.89543 10.0858 9 10.9812 9 12.0858V29.0858C9 30.1904 9.89543 31.0858 11 31.0858H28C29.1046 31.0858 30 30.1904 30 29.0858V20.0858C30 19.5335 30.4477 19.0858 31 19.0858C31.5523 19.0858 32 19.5335 32 20.0858V29.0858C32 31.2949 30.2091 33.0858 28 33.0858H11C8.79086 33.0858 7 31.2949 7 29.0858V12.0858C7 9.87665 8.79086 8.08578 11 8.08578H20C20.5523 8.08578 21 8.5335 21 9.08578C21 9.63807 20.5523 10.0858 20 10.0858Z" fill="#202326"/>
<path fill-rule="evenodd" clip-rule="evenodd" d="M25.0712 7C25.0712 6.44771 25.5189 6 26.0712 6L33.0712 6C33.6235 6 34.0712 6.44771 34.0712 7L34.0711 7.01081L34.0711 14.0001C34.0711 14.5524 33.6234 15.0001 33.0711 15.0001C32.5189 15.0001 32.0711 14.5524 32.0711 14.0001V9.48533L23.6569 17.8996C23.2663 18.2901 22.6332 18.2901 22.2426 17.8996C21.8521 17.5091 21.8521 16.8759 22.2426 16.4854L30.7281 8H26.0712C25.5189 8 25.0712 7.55228 25.0712 7Z" fill="#0070C0"/>
</svg>
