<svg width="40" height="40" viewBox="0 0 40 40" fill="none" xmlns="http://www.w3.org/2000/svg">
<path fill-rule="evenodd" clip-rule="evenodd" d="M30.6308 23.5C30.1943 23.5 29.8098 23.7774 29.6359 24.1778C28.0207 27.8981 24.3142 30.5 20 30.5C15.6857 30.5 11.9792 27.8981 10.364 24.1778C10.1902 23.7774 9.80559 23.5 9.36908 23.5C8.68268 23.5 8.1889 24.1603 8.45234 24.7942C10.3328 29.3186 14.7949 32.5 20 32.5C25.2051 32.5 29.6671 29.3186 31.5476 24.7942C31.811 24.1603 31.3173 23.5 30.6308 23.5ZM9.36908 16.5C9.80559 16.5 10.1902 16.2226 10.364 15.8222C11.9792 12.1019 15.6857 9.5 20 9.5C24.3142 9.5 28.0207 12.1019 29.6359 15.8222C29.8098 16.2226 30.1943 16.5 30.6308 16.5C31.3173 16.5 31.811 15.8397 31.5476 15.2058C29.6671 10.6814 25.2051 7.5 20 7.5C14.7949 7.5 10.3328 10.6814 8.45234 15.2058C8.1889 15.8397 8.68268 16.5 9.36908 16.5Z" fill="#202326"/>
<path fill-rule="evenodd" clip-rule="evenodd" d="M33.25 12C33.25 11.4477 32.8023 11 32.25 11C31.6977 11 31.25 11.4477 31.25 12V16H27.25C26.6977 16 26.25 16.4477 26.25 17C26.25 17.5523 26.6977 18 27.25 18H32.25C32.8023 18 33.25 17.5523 33.25 17V12Z" fill="#0070C0"/>
<path fill-rule="evenodd" clip-rule="evenodd" d="M6.75 28C6.75 28.5523 7.19772 29 7.75 29C8.30228 29 8.75 28.5523 8.75 28L8.75 24H12.75C13.3023 24 13.75 23.5523 13.75 23C13.75 22.4477 13.3023 22 12.75 22H7.75C7.74784 22 7.74569 22 7.74353 22C7.19422 22.0035 6.75 22.4499 6.75 23C6.75 23.0003 6.75 23.0007 6.75 23.001L6.75 28Z" fill="#0070C0"/>
</svg>
