<svg width="40" height="40" viewBox="0 0 40 40" fill="none" xmlns="http://www.w3.org/2000/svg">
<path fill-rule="evenodd" clip-rule="evenodd" d="M8 14C6.89543 14 6 14.8954 6 16V30C6 31.1046 6.89543 32 8 32H32C33.1046 32 34 31.1046 34 30V16C34 14.8954 33.1046 14 32 14H8ZM26 18C25.4477 18 25 18.4477 25 19C25 19.5523 25.4477 20 26 20H29C29.5523 20 30 19.5523 30 19C30 18.4477 29.5523 18 29 18H26Z" fill="white"/>
<path fill-rule="evenodd" clip-rule="evenodd" d="M28.2901 11.4024H12.1243L21.6505 5.90242C23.0854 5.074 24.9202 5.56562 25.7486 7.0005L28.2901 11.4024Z" fill="white"/>
</svg>
