<svg width="40" height="40" viewBox="0 0 40 40" fill="none" xmlns="http://www.w3.org/2000/svg">
<mask id="path-1-inside-1_1694_1991" fill="white">
<path fill-rule="evenodd" clip-rule="evenodd" d="M5 12C5 9.79086 6.79086 8 9 8H31C33.2091 8 35 9.79086 35 12V17C33.3431 17 32 18.3431 32 20C32 21.6569 33.3431 23 35 23V28C35 30.2091 33.2091 32 31 32H9C6.79086 32 5 30.2091 5 28V23C6.65685 23 8 21.6569 8 20C8 18.3431 6.65685 17 5 17V12Z"/>
</mask>
<path d="M35 17V19H37V17H35ZM35 23H37V21H35V23ZM5 23V21H3V23H5ZM5 17H3V19H5V17ZM9 6C5.68629 6 3 8.68629 3 12H7C7 10.8954 7.89543 10 9 10V6ZM31 6H9V10H31V6ZM37 12C37 8.68629 34.3137 6 31 6V10C32.1046 10 33 10.8954 33 12H37ZM37 17V12H33V17H37ZM34 20C34 19.4477 34.4477 19 35 19V15C32.2386 15 30 17.2386 30 20H34ZM35 21C34.4477 21 34 20.5523 34 20H30C30 22.7614 32.2386 25 35 25V21ZM37 28V23H33V28H37ZM31 34C34.3137 34 37 31.3137 37 28H33C33 29.1046 32.1046 30 31 30V34ZM9 34H31V30H9V34ZM3 28C3 31.3137 5.68629 34 9 34V30C7.89543 30 7 29.1046 7 28H3ZM3 23V28H7V23H3ZM6 20C6 20.5523 5.55228 21 5 21V25C7.76142 25 10 22.7614 10 20H6ZM5 19C5.55228 19 6 19.4477 6 20H10C10 17.2386 7.76142 15 5 15V19ZM3 12V17H7V12H3Z" fill="#202326" mask="url(#path-1-inside-1_1694_1991)"/>
<path fill-rule="evenodd" clip-rule="evenodd" d="M22.5 18H21.4853L22.864 16.6213C23.2545 16.2308 23.2545 15.5976 22.864 15.2071C22.4734 14.8166 21.8403 14.8166 21.4497 15.2071L20.0356 16.6213L18.6214 15.2071C18.2309 14.8166 17.5977 14.8166 17.2072 15.2071C16.8167 15.5976 16.8167 16.2308 17.2072 16.6213L18.5859 18H17.5C16.9477 18 16.5 18.4477 16.5 19C16.5 19.5523 16.9477 20 17.5 20H19V21H17.5C16.9477 21 16.5 21.4477 16.5 22C16.5 22.5523 16.9477 23 17.5 23H19V24C19 24.5523 19.4477 25 20 25C20.5523 25 21 24.5523 21 24V23H22.5C23.0523 23 23.5 22.5523 23.5 22C23.5 21.4477 23.0523 21 22.5 21H21V20H22.5C23.0523 20 23.5 19.5523 23.5 19C23.5 18.4477 23.0523 18 22.5 18Z" fill="#0070C0"/>
</svg>
