<svg width="28" height="28" viewBox="0 0 28 28" fill="none" xmlns="http://www.w3.org/2000/svg">
<path fill-rule="evenodd" clip-rule="evenodd" d="M6 3.5C4.89543 3.5 4 4.39543 4 5.5V22.5H3C2.44772 22.5 2 22.9477 2 23.5C2 24.0523 2.44772 24.5 3 24.5H25C25.5523 24.5 26 24.0523 26 23.5C26 22.9477 25.5523 22.5 25 22.5H24V13.5C24 12.3954 23.1046 11.5 22 11.5H17V5.5C17 4.39543 16.1046 3.5 15 3.5H6ZM9 8.5C8.44772 8.5 8 8.94772 8 9.5C8 10.0523 8.44772 10.5 9 10.5H12C12.5523 10.5 13 10.0523 13 9.5C13 8.94772 12.5523 8.5 12 8.5H9ZM9 13C8.44772 13 8 13.4477 8 14C8 14.5523 8.44772 15 9 15H12C12.5523 15 13 14.5523 13 14C13 13.4477 12.5523 13 12 13H9ZM8 18.5C8 17.9477 8.44772 17.5 9 17.5H12C12.5523 17.5 13 17.9477 13 18.5C13 19.0523 12.5523 19.5 12 19.5H9C8.44772 19.5 8 19.0523 8 18.5Z" fill="#16BCC7"/>
</svg>
