<svg width="36" height="36" viewBox="0 0 36 36" fill="none" xmlns="http://www.w3.org/2000/svg">
<path fill-rule="evenodd" clip-rule="evenodd" d="M24 8H12C11.4477 8 11 8.44772 11 9V15V17V27V28H25V27V17V15V9C25 8.44772 24.5523 8 24 8ZM9 29C9 29.5523 9.44772 30 10 30H26C26.5523 30 27 29.5523 27 29H30C31.1046 29 32 28.1046 32 27V17C32 15.8954 31.1046 15 30 15H27V9C27 7.34315 25.6569 6 24 6H12C10.3431 6 9 7.34315 9 9V15H6C4.89543 15 4 15.8954 4 17V27C4 28.1046 4.89543 29 6 29H9ZM9 27V17H6L6 27H9ZM27 27V17H30V27H27Z" fill="#404040"/>
<path fill-rule="evenodd" clip-rule="evenodd" d="M19 13V11.5H17V13H15.5V15H17V16.5H19V15H20.5V13H19ZM15.5 21C15.5 19.8954 16.3954 19 17.5 19H18.5C19.6046 19 20.5 19.8954 20.5 21V25H15.5V21Z" fill="#25BDC8"/>
</svg>
